<svg width="87" height="101" viewBox="0 0 87 101" fill="none" xmlns="http://www.w3.org/2000/svg">
<mask id="mask0_173_1243" style="mask-type:luminance" maskUnits="userSpaceOnUse" x="0" y="0" width="87" height="101">
<path d="M81.8002 26.3082V21.9593C81.1792 16.0387 71.7878 11.8326 60.4057 6.35532C51.9998 2.31037 50.9205 0 50.9205 0C50.9205 0 49.2861 2.50497 41.4353 6.35532C30.0994 11.9151 20.7807 16.0387 20.1597 21.9593V26.3082C17.6695 26.3082 15.3189 28.0927 14.841 30.4644V95.7207H12.0466V12.9875C12.2654 12.7882 13.9082 11.1905 13.1724 8.80344C12.1757 5.56946 8.0981 4.98097 6.6803 2.82489C5.26249 4.98097 1.1849 5.56919 0.188202 8.80344C-0.547362 11.1905 1.09549 12.7882 1.31424 12.9875V100.944H1.93004H12.0466H14.841H37.2729H87V30.4641C86.522 28.0927 84.2904 26.3082 81.8002 26.3082Z" fill="white"/>
</mask>
<g mask="url(#mask0_173_1243)">
<path d="M89.4195 -5.25644H-4.07446V104.506H89.4195V-5.25644Z" fill="#68C9FF"/>
</g>
<circle cx="55" cy="22" r="14" fill="#FFC449"/>
<mask id="mask1_173_1243" style="mask-type:luminance" maskUnits="userSpaceOnUse" x="0" y="0" width="87" height="101">
<path d="M81.8002 26.3082V21.9593C81.1792 16.0387 71.7878 11.8326 60.4057 6.35532C51.9998 2.31037 50.9205 0 50.9205 0C50.9205 0 49.2861 2.50497 41.4353 6.35532C30.0994 11.9151 20.7807 16.0387 20.1597 21.9593V26.3082C17.6695 26.3082 15.3189 28.0927 14.841 30.4644V95.7207H12.0466V12.9875C12.2654 12.7882 13.9082 11.1905 13.1724 8.80344C12.1757 5.56946 8.0981 4.98097 6.6803 2.82489C5.26249 4.98097 1.1849 5.56919 0.188202 8.80344C-0.547362 11.1905 1.09549 12.7882 1.31424 12.9875V100.944H1.93004H12.0466H14.841H37.2729H87V30.4641C86.522 28.0927 84.2904 26.3082 81.8002 26.3082Z" fill="white"/>
</mask>
<g mask="url(#mask1_173_1243)">
<path d="M84.8655 72.6821L84.1062 61.0629C84.4554 61.0629 84.7384 60.7772 84.7384 60.4247V59.9814C84.7384 59.6289 84.4554 59.3432 84.1062 59.3432H83.9938L83.1757 46.8222H83.8185V45.5224L84.1065 45.5235C84.3764 45.5235 84.6326 45.3684 84.7329 45.1152C84.8584 44.7984 84.7548 44.4994 84.5473 44.3197C84.9345 43.816 85.2336 43.0033 84.7151 42.0855C84.3083 41.3654 83.413 40.7885 82.6228 40.2792C82.3009 40.0719 81.8752 39.7972 81.6077 39.5656C81.967 39.3625 82.2131 38.9791 82.2131 38.5347C82.2131 37.987 81.8421 37.5299 81.3419 37.3936L81.025 33.912L80.7341 37.3936C80.2339 37.5299 79.8626 37.987 79.8626 38.5347C79.8626 38.9838 80.1139 39.3705 80.4795 39.572C80.2099 39.7997 79.7896 40.0669 79.471 40.269C78.6781 40.773 77.7793 41.3438 77.3674 42.061C76.8753 42.9191 77.1041 43.6887 77.4519 44.1988C77.2209 44.3078 77.0598 44.5422 77.0585 44.8152C77.0585 45.1936 77.3623 45.5009 77.736 45.5017L78.2329 45.5033V46.8222H78.8741L78.03 59.3432H77.8818C77.5326 59.3432 77.2496 59.6289 77.2496 59.9814V60.4247C77.2496 60.7772 77.5326 61.0629 77.8818 61.0629H77.9141L77.1309 72.6821H72.9109L72.4791 66.0762H72.9557V65.1123L73.1693 65.1131C73.3711 65.1131 73.5619 64.9955 73.6352 64.8059C73.7254 64.5726 73.6489 64.3529 73.4958 64.2204C73.7829 63.8469 74.0046 63.2444 73.6202 62.5637C73.3186 62.0295 72.6546 61.602 72.0689 61.2244C71.8302 61.0706 71.5147 60.8672 71.3164 60.6952C71.5827 60.5445 71.7654 60.2602 71.7654 59.9306C71.7654 59.5246 71.4903 59.1856 71.1195 59.0846L70.8846 56.5031L70.6689 59.0846C70.2978 59.1856 70.0227 59.5246 70.0227 59.9306C70.0227 60.2635 70.209 60.5503 70.4802 60.6999C70.2803 60.8688 69.9686 61.0667 69.7326 61.2166C69.1447 61.5904 68.4781 62.0135 68.1729 62.5452C67.8081 63.1817 67.9777 63.752 68.2355 64.1304C68.0641 64.2113 67.9448 64.3852 67.9438 64.5875C67.9438 64.868 68.1691 65.096 68.4461 65.0965L68.8147 65.0976V66.0753H69.2902L68.845 72.6813H64.5022V68.7271H59.3904C60.6026 66.6202 61.6206 63.4517 60.4169 59.5461C57.7435 50.8705 47.3362 48.8361 42.68 43.5457L42.4706 40.0205C42.7653 39.8099 42.9584 39.4638 42.9584 39.0716C42.9584 38.6291 42.7137 38.2446 42.3533 38.048L41.8064 34.5985L41.2598 38.0478C40.8994 38.2443 40.6546 38.6288 40.6546 39.0713C40.6546 39.4635 40.8477 39.8097 41.1425 40.0203L40.933 43.5455C36.2768 48.8356 25.8695 50.8699 23.1961 59.5458C21.9924 63.4514 23.0104 66.6199 24.2226 68.7269H19.1105V72.6818H14.7989L14.3671 66.0759H14.8437V65.112L15.0573 65.1128C15.2591 65.1128 15.45 64.9952 15.5232 64.8056C15.6137 64.5723 15.5369 64.3523 15.3838 64.2201C15.6709 63.8467 15.8929 63.2441 15.5082 62.5634C15.2066 62.0293 14.5427 61.6017 13.9567 61.2241C13.718 61.0703 13.4024 60.8669 13.2042 60.6949C13.4705 60.5442 13.6532 60.2599 13.6532 59.9303C13.6532 59.5243 13.3781 59.1853 13.0073 59.0843L12.7721 56.5029L12.5564 59.0843C12.1856 59.1853 11.9102 59.5243 11.9102 59.9303C11.9102 60.2632 12.0964 60.55 12.3677 60.6996C12.1678 60.8686 11.8561 61.0665 11.6201 61.2164C11.0322 61.5901 10.3655 62.0133 10.0604 62.5449C9.69561 63.1814 9.86514 63.7517 10.123 64.1301C9.95155 64.211 9.83233 64.3849 9.83124 64.5872C9.83124 64.8677 10.0566 65.0957 10.3338 65.0962L10.7024 65.0973V66.075H11.1779L10.7328 72.681H6.48921L5.72985 61.0618C6.07904 61.0618 6.36205 60.7761 6.36205 60.4236V59.9803C6.36205 59.6278 6.07904 59.3421 5.72985 59.3421H5.61747L4.79932 46.8211H5.44219V45.5213L5.73013 45.5224C6.00002 45.5224 6.25623 45.3673 6.35659 45.1141C6.4821 44.7972 6.37846 44.4983 6.17092 44.3186C6.55839 43.8149 6.85726 43.0022 6.33881 42.0844C5.9322 41.3643 5.03667 40.7874 4.24642 40.2781C3.92458 40.0708 3.49883 39.7961 3.2314 39.5645C3.5907 39.3614 3.8368 38.978 3.8368 38.5336C3.8368 37.9859 3.46574 37.5288 2.96561 37.3925L2.64869 33.9109L2.35802 37.3925C1.85789 37.5288 1.48655 37.9859 1.48655 38.5336C1.48655 38.9827 1.73785 39.3694 2.10344 39.5709C1.83383 39.7986 1.41354 40.0658 1.09498 40.2679C0.301995 40.7719 -0.596814 41.3427 -1.00862 42.0599C-1.50082 42.918 -1.27194 43.6876 -0.924125 44.1977C-1.15546 44.3067 -1.31624 44.5411 -1.31761 44.8141C-1.31761 45.1925 -1.01381 45.4997 -0.640017 45.5006L-0.143171 45.5022V46.8211H0.498055L-0.346066 59.3421H-0.494271C-0.843459 59.3421 -1.12647 59.6278 -1.12647 59.9803V60.4236C-1.12647 60.7761 -0.843459 61.0618 -0.494271 61.0618H-0.462007L-1.24515 72.681H-9.8269V99.0971H93.4399V72.681H84.8655V72.6821Z" fill="#583831"/>
</g>
<path d="M37.5312 89.5445L36.717 101H44.2437L44.6259 97.6623H47.0185L47.4172 100.983H54.1131L53.3489 90.3496L37.5312 89.5445Z" fill="#125056"/>
<path d="M39.8908 69.9208C38.8939 70.0382 37.9468 70.3401 36.385 72.4535C34.8231 74.5668 33.0785 77.8038 32.6964 80.0346C32.3142 82.2653 33.6268 83.6406 36.1856 83.2884C38.7443 82.9362 42.1837 82.1311 42.1837 82.1311C42.1837 82.1311 42.5824 79.0953 41.4526 77.5523" fill="#1D7377"/>
<path d="M50.4081 70.1389C50.4081 70.1389 51.106 70.1724 51.7706 70.2395C52.4352 70.3066 53.565 71.0446 54.5453 72.9231C55.5256 74.8016 57.1373 77.0491 57.669 79.3469C58.2007 81.6447 57.0044 83.4561 54.7447 83.4561C52.485 83.4561 47.7996 82.1311 47.7996 82.1311C47.7996 82.1311 49.0955 80.37 48.6968 77.6193" fill="#1D7377"/>
<path d="M45.972 69.8202C48.6637 69.8202 50.7738 70.0717 51.7707 70.2395C52.7676 70.4072 53.1332 71.9335 53.1664 72.7721C53.1996 73.6107 53.9805 94.291 53.9805 94.5259C53.9805 94.7607 46.6865 95.2638 46.5203 94.9787C46.3542 94.6936 46.1049 92.2448 46.0385 92.2448C45.972 92.2448 45.6896 94.8278 45.4902 94.9787C45.2908 95.1297 36.6258 94.7106 36.6343 94.3581C36.6509 93.6705 37.814 74.1139 37.9967 72.4702C38.1795 70.8265 39.1266 70.1053 39.8909 69.9208C40.6552 69.7363 45.972 69.8202 45.972 69.8202Z" fill="#22938A"/>
<path d="M45.8719 71.1955C44.728 71.2724 43.064 71.0278 43.064 69.7363C43.064 68.4448 43.9944 68.1765 45.739 68.1765C47.4836 68.1765 48.3808 68.6629 48.3808 69.5015C48.3808 70.3401 48.3642 71.0278 45.8719 71.1955Z" fill="white"/>
<path d="M44.2273 67.6565V69.535C44.2273 69.535 45.2076 70.0382 47.2845 69.6021V67.7907L44.2273 67.6565Z" fill="#DDA38A"/>
<path d="M51.5712 57.9174C51.5712 57.9174 53.4986 57.336 53.4986 58.8343C53.4986 60.3327 51.1282 60.0419 51.1282 60.0419L51.5712 57.9174Z" fill="#16232B"/>
<path d="M50.2862 53.4671C50.2862 53.4671 53.0998 53.5342 53.9416 56.0165C54.7834 58.4988 50.1533 59.2815 50.1533 59.2815L50.2862 53.4671Z" fill="#16232B"/>
<path d="M51.8265 55.4L52.1248 61.6296C52.1248 61.6296 54.9602 68.0839 47.2732 68.8752C38.3674 69.7921 38.1203 62.1777 37.9687 59.4828C37.817 56.7878 38.8797 53.1805 38.8797 53.1805L51.8265 55.4Z" fill="#F4CFA2"/>
<path d="M38.0103 60.1997C38.1689 60.4121 38.312 60.638 38.448 60.8589C38.6843 61.2428 39.2635 61.8546 39.7123 61.3516C40.1788 60.829 39.9407 59.841 39.8431 59.2211C39.8374 59.1846 39.8519 59.1497 39.8895 59.1386C40.6069 58.9265 41.2727 58.4088 41.2696 57.5931C41.2695 57.5534 41.313 57.5117 41.3538 57.5284C42.148 57.8557 43.2849 58.0073 44.0605 57.5573C44.2961 57.4206 44.6058 57.1855 44.8955 57.1942C45.1664 57.2024 45.4257 57.3433 45.684 57.4155C46.7505 57.7135 48.5503 57.9554 49.3308 56.9418C49.3448 56.9236 49.3748 56.9187 49.3954 56.9246C50.0273 57.1024 50.725 57.2884 51.3843 57.1613C51.5691 57.1256 51.7405 57.0671 51.9028 56.9929L51.8265 55.4L38.8797 53.1805C38.8797 53.1805 37.817 56.7878 37.9687 59.4828C37.9806 59.6938 37.9931 59.9349 38.0103 60.1997Z" fill="#DDA38A"/>
<path d="M41.6699 58.2362C41.6804 58.2479 41.7246 58.2237 41.7909 58.1746C41.8252 58.1517 41.8599 58.1151 41.9083 58.0867C41.9581 58.0563 42.0107 58.0239 42.0662 57.99C42.1878 57.9382 42.3287 57.8757 42.4877 57.8797C42.6444 57.8758 42.8111 57.914 42.9674 57.9852C43.2781 58.1372 43.4135 58.2739 43.4965 58.3197C43.5772 58.3717 43.5986 58.3568 43.6223 58.3354C43.645 58.3147 43.6639 58.2889 43.6053 58.2005C43.5759 58.1562 43.526 58.0975 43.4418 58.0223C43.3558 57.95 43.2389 57.8538 43.0563 57.7716C42.8751 57.6886 42.6699 57.6457 42.4774 57.6611C42.2818 57.6686 42.1152 57.7569 41.986 57.836C41.8647 57.9302 41.7727 58.0179 41.7264 58.0964C41.6756 58.1706 41.6546 58.2193 41.6699 58.2362Z" fill="#16232B"/>
<path d="M50.6684 58.4421C50.6806 58.432 50.6572 58.3879 50.6053 58.3175C50.5793 58.2825 50.5464 58.2405 50.5069 58.1938C50.4628 58.1522 50.4119 58.1059 50.3551 58.056C50.3002 58.0036 50.2258 57.9669 50.1535 57.9184C50.118 57.8926 50.074 57.8803 50.0324 57.8609C49.9894 57.8451 49.948 57.8208 49.9006 57.812C49.7168 57.7547 49.5035 57.7557 49.3085 57.8085C49.1131 57.8635 48.9815 57.9461 48.8906 58.015C48.8002 58.0861 48.7473 58.1438 48.7162 58.1878C48.6548 58.2761 48.6743 58.3029 48.697 58.3232C48.7211 58.3447 48.7417 58.3589 48.8224 58.3096C48.8771 58.2747 48.9324 58.2395 49.0037 58.1941C49.0888 58.1432 49.2036 58.0792 49.3646 58.034C49.5257 57.9914 49.6949 57.9848 49.8491 58.0241C49.9256 58.0433 49.9997 58.0692 50.0682 58.0982C50.1339 58.1352 50.202 58.1595 50.2574 58.1988C50.3136 58.2366 50.3663 58.2706 50.4142 58.2998C50.4594 58.3336 50.4984 58.3648 50.5332 58.388C50.6025 58.4351 50.6506 58.4564 50.6684 58.4421Z" fill="#16232B"/>
<path d="M46.6941 63.3901C46.6831 63.4079 46.7838 63.4776 46.9589 63.4598C47.0445 63.4506 47.1511 63.4225 47.2493 63.3375C47.3486 63.2525 47.4026 63.0832 47.3692 62.9407C47.3446 62.7987 47.2744 62.6695 47.1758 62.5901C47.0781 62.5096 46.9687 62.4857 46.8839 62.4785C46.7108 62.4684 46.6137 62.5186 46.6183 62.538C46.6218 62.561 46.7224 62.5541 46.8676 62.5901C46.9384 62.6094 47.0212 62.6401 47.0862 62.7036C47.1515 62.7649 47.1993 62.8601 47.2187 62.9686C47.2409 63.077 47.2118 63.1661 47.1535 63.2297C47.0922 63.292 47.0104 63.3285 46.9403 63.3487C46.7959 63.3902 46.7026 63.3687 46.6941 63.3901Z" fill="#3F2722"/>
<path d="M44.7769 64.9168C46.2928 64.6621 47.7641 64.779 48.3384 64.8426C48.5101 64.8618 48.6485 65.0004 48.6696 65.1795C48.7379 65.7613 48.5582 66.9352 46.5666 66.8766C44.7289 66.8225 44.4658 65.8374 44.4588 65.3047C44.4562 65.1108 44.5937 64.9476 44.7769 64.9168Z" fill="#9E3249"/>
<path d="M46.5668 66.8767C45.7204 66.8519 45.209 66.629 44.9019 66.3443C45.0071 65.8293 45.4565 65.5643 46.6822 65.5641C47.5667 65.564 48.0036 66.0201 48.2188 66.4444C47.9044 66.7131 47.3917 66.9008 46.5668 66.8767Z" fill="#E85D77"/>
<path d="M50.2188 60.4854C50.1857 60.005 49.9728 59.6297 49.743 59.6469C49.5133 59.6642 49.3539 60.0675 49.3869 60.5479C49.42 61.0281 49.6329 61.4035 49.8626 61.3862C50.0924 61.3689 50.2519 60.9657 50.2188 60.4854Z" fill="#16232B"/>
<path d="M43.2105 60.5621C43.1774 60.0817 42.9645 59.7064 42.7347 59.7236C42.505 59.7409 42.3456 60.1443 42.3786 60.6246C42.4117 61.1049 42.6246 61.4803 42.8543 61.463C43.0841 61.4457 43.2438 61.0425 43.2105 60.5621Z" fill="#16232B"/>
<path d="M52.0017 62.419C52.0017 62.1235 51.5264 61.884 50.9402 61.884C50.354 61.884 49.8787 62.1235 49.8787 62.419C49.8787 62.7146 50.354 62.9539 50.9402 62.9539C51.5264 62.9539 52.0017 62.7146 52.0017 62.419Z" fill="#EF7B7B"/>
<path d="M50.9401 62.1614C50.9275 62.1791 51.0191 62.2732 51.1447 62.3716C51.2703 62.4701 51.3825 62.5357 51.3951 62.5182C51.4077 62.5005 51.3162 62.4063 51.1906 62.3078C51.0649 62.2093 50.9528 62.1438 50.9401 62.1614Z" fill="#3F2722"/>
<path d="M50.4475 62.2473C50.4348 62.2648 50.5264 62.359 50.652 62.4575C50.7776 62.556 50.8897 62.6216 50.9023 62.6039C50.9151 62.5863 50.8235 62.4921 50.6979 62.3937C50.5721 62.2952 50.4602 62.2297 50.4475 62.2473Z" fill="#3F2722"/>
<path d="M43.1496 62.5512C43.1496 62.2557 42.6743 62.0161 42.0881 62.0161C41.5019 62.0161 41.0266 62.2557 41.0266 62.5512C41.0266 62.8468 41.5019 63.0863 42.0881 63.0863C42.6742 63.0863 43.1496 62.8466 43.1496 62.5512Z" fill="#EF7B7B"/>
<path d="M42.0878 62.2935C42.0752 62.3111 42.1668 62.4053 42.2924 62.5038C42.418 62.6023 42.5302 62.668 42.5428 62.6502C42.5555 62.6326 42.4639 62.5384 42.3383 62.4399C42.2126 62.3414 42.1005 62.2758 42.0878 62.2935Z" fill="#3F2722"/>
<path d="M41.5949 62.3793C41.5823 62.397 41.6739 62.491 41.7995 62.5895C41.9251 62.6881 42.0371 62.7537 42.0498 62.736C42.0625 62.7183 41.9709 62.6241 41.8453 62.5256C41.7196 62.4272 41.6075 62.3618 41.5949 62.3793Z" fill="#3F2722"/>
<path d="M35.7092 55.4127C35.7092 55.4127 33.073 57.9397 34.9339 59.2368C34.9339 59.2368 33.4496 61.5402 36.5732 61.8309C36.5732 61.8309 39.1652 61.5402 39.4532 61.16C39.7412 60.7799 39.0987 58.6106 39.0987 58.6106C39.0987 58.6106 40.5831 58.1634 40.295 55.8823C40.295 55.8823 42.9535 58.2975 44.7701 56.2625C44.7701 56.2625 46.6753 57.4925 48.0045 57.0004C49.3337 56.5085 49.1121 55.6811 49.1121 55.6811C49.1121 55.6811 49.8432 57.2241 51.837 56.419C53.8308 55.614 51.5491 52.9751 51.5491 52.9751C51.5491 52.9751 43.3522 49.889 40.1179 50.9624C36.8832 52.0358 35.7092 55.4127 35.7092 55.4127Z" fill="#253038"/>
<path d="M43.8616 47.0043C39.9431 46.8599 34.6901 50.4034 35.7092 55.4128C35.7092 55.4128 38.8581 53.0035 44.2161 52.8186C50.2087 52.6119 51.5877 53.7524 52.2607 54.0375C52.2607 54.0375 52.8172 47.3341 43.8616 47.0043Z" fill="white"/>
<path d="M43.5458 51.6892C39.2092 52.1085 36.6645 53.4607 35.5835 54.3269C35.5933 54.6804 35.6336 55.0424 35.709 55.4127C35.709 55.4127 38.8579 53.0035 44.216 52.8186C50.2085 52.6117 51.5875 53.7522 52.2605 54.0374C52.2605 54.0374 52.3016 53.537 52.1796 52.8036C50.4859 51.9996 47.6784 51.2897 43.5458 51.6892Z" fill="#D4E1F9"/>
<path d="M38.7608 62.0108C38.8884 63.5264 39.3067 64.1231 37.6007 64.2432C35.8947 64.3632 35.0532 60.8586 36.3951 60.2105C37.737 59.5625 38.6697 60.9307 38.7608 62.0108Z" fill="#F4CFA2"/>
<path d="M36.5184 61.1846C36.5234 61.1891 36.5472 61.1673 36.5911 61.1328C36.6351 61.0999 36.7062 61.0555 36.8008 61.0556C36.9948 61.0499 37.2279 61.259 37.4042 61.5332C37.5783 61.8125 37.7406 62.1653 37.8118 62.5223C37.8428 62.6961 37.8403 62.8903 37.7439 62.9738C37.6361 63.0711 37.4872 63.0556 37.3804 62.9713C37.272 62.8884 37.2165 62.7657 37.1999 62.6607C37.1859 62.5525 37.2113 62.4618 37.2474 62.3837C37.319 62.2309 37.4252 62.1924 37.4985 62.1772C37.5739 62.1627 37.6206 62.1677 37.6462 62.1629C37.6724 62.1592 37.6794 62.1507 37.6837 62.1393C37.6878 62.1284 37.6872 62.1148 37.6622 62.0971C37.6372 62.0813 37.5875 62.054 37.4867 62.0546C37.4369 62.0558 37.3723 62.0652 37.3021 62.1036C37.2323 62.1413 37.1613 62.2113 37.1115 62.3075C37.0627 62.399 37.0196 62.5317 37.038 62.6823C37.0584 62.8301 37.1315 62.9952 37.2828 63.1119C37.3582 63.1687 37.4531 63.2113 37.5582 63.2146C37.6635 63.2186 37.7708 63.1762 37.8509 63.1039C37.9416 63.024 37.974 62.9046 37.9844 62.8004C37.9966 62.6926 37.9789 62.5918 37.9627 62.4921C37.8744 62.1006 37.697 61.7505 37.5003 61.4623C37.398 61.3196 37.2849 61.1996 37.1646 61.1113C37.0447 61.024 36.9109 60.9744 36.7966 60.9879C36.6821 60.9999 36.6082 61.0629 36.569 61.1062C36.5295 61.1518 36.5147 61.1814 36.5184 61.1846Z" fill="#16232B"/>
<path d="M48.2981 78.1225C48.2981 78.1225 47.2679 82.0975 47.7996 82.1311C48.3313 82.1646 49.511 79.5649 49.511 79.5649C49.511 79.5649 49.3116 76.7639 48.2981 78.1225Z" fill="#3A6F81"/>
<path d="M45.2407 69.4679L45.9718 70.8768L46.653 69.317L45.2407 69.4679Z" fill="#DDA38A"/>
<path d="M48.381 81.7956C48.381 81.7956 47.434 82.0808 46.1546 81.5608C44.8752 81.0409 44.9915 80.4203 44.9749 78.307C44.9583 76.1937 44.9251 74.03 45.274 73.5604C45.6229 73.0908 46.5035 72.9063 46.7195 73.5939C46.9355 74.2816 48.1318 77.3006 48.6967 77.6193C49.2616 77.938 49.5109 79.2462 49.3447 80.3532C49.1786 81.4602 48.381 81.7956 48.381 81.7956Z" fill="#DDA38A"/>
<path d="M46.5534 76.831C46.5534 76.831 46.1214 74.4325 46.0549 73.5939C45.9884 72.7553 47.085 72.3192 47.4672 73.3927C47.8493 74.4661 48.4807 77.0155 48.6967 77.6193C48.9127 78.2231 48.9626 78.9611 48.2647 78.743C47.5669 78.525 46.7361 77.7535 46.5534 76.831Z" fill="#DDA38A"/>
<path d="M47.8827 77.0826C47.8827 77.0826 47.6003 75.1537 47.1184 74.5332C46.6366 73.9126 45.9886 74.3487 46.2378 75.5395C46.487 76.7303 46.7363 77.2838 46.7363 77.2838C46.7363 77.2838 47.484 77.8038 47.8827 77.0826Z" fill="#DDA38A"/>
<path d="M41.5689 81.6111C41.5689 81.6111 42.516 82.0808 43.7953 81.7789C45.0747 81.477 45.623 79.9507 45.3405 77.8374C45.3405 77.8374 45.0082 74.1307 44.8919 73.4094C44.7756 72.6882 43.9781 72.4702 43.4796 73.6107C42.9812 74.7512 42.599 75.5731 42.1338 76.9316C41.6686 78.2902 41.22 79.6152 41.22 79.6152L41.5689 81.6111Z" fill="#F4CFA2"/>
<path d="M57.669 79.3469C58.2007 81.6447 57.0044 83.4561 54.7447 83.4561C52.485 83.4561 47.7996 82.1311 47.7996 82.1311C47.7996 82.1311 49.0955 80.37 48.6968 77.6193C48.6968 77.6193 53.4321 78.6592 55.0604 78.9611C56.6887 79.263 57.669 79.3469 57.669 79.3469Z" fill="#1D7377"/>
<path d="M32.6963 80.0346C32.3009 82.2629 33.6268 83.6406 36.1855 83.2884C38.7443 82.9362 42.1836 82.1311 42.1836 82.1311C42.1836 82.1311 42.5824 79.0953 41.4525 77.5522C41.4525 77.5522 37.2157 78.2735 35.5708 78.676C33.9259 79.0785 32.8957 78.9108 32.6963 80.0346Z" fill="#1D7377"/>
<path d="M40.1863 77.7732C40.4655 78.2653 40.9814 79.5991 40.7213 82.4559C41.5935 82.2692 42.1838 82.1312 42.1838 82.1312C42.1838 82.1312 42.5826 79.0954 41.4528 77.5524C41.4528 77.5524 40.9322 77.6408 40.1863 77.7732Z" fill="white"/>
<path d="M47.7996 82.1311C47.7996 82.1311 48.4686 82.3201 49.4223 82.5555C50.4248 80.216 50.4217 78.7562 50.2563 77.9589C49.351 77.763 48.6968 77.6193 48.6968 77.6193C49.0955 80.37 47.7996 82.1311 47.7996 82.1311Z" fill="white"/>
<path d="M43.7786 75.4389C43.7786 75.4389 44.4598 73.6778 44.8586 73.074C45.2573 72.4702 46.0382 72.9901 45.7558 73.8455C45.4733 74.7009 44.7921 76.1769 44.7921 76.1769" fill="#F4CFA2"/>
<path d="M44.5098 76.2104C44.5098 76.2104 44.9085 75.2209 45.2907 74.5164C45.6728 73.812 46.4039 74.3822 46.1214 75.1705C45.839 75.9588 45.2242 77.6529 45.2242 77.6529" fill="#F4CFA2"/>
<path d="M45.7725 83.171C45.7725 82.9951 45.9138 82.8523 46.0881 82.8523C46.2625 82.8523 46.4038 82.9951 46.4038 83.171C46.4038 83.3469 46.2625 83.4896 46.0881 83.4896C45.9138 83.4896 45.7725 83.3469 45.7725 83.171Z" fill="white"/>
<path d="M45.7561 88.3368C45.7561 88.1609 45.8974 88.0182 46.0718 88.0182C46.2462 88.0182 46.3875 88.1609 46.3875 88.3368C46.3875 88.5127 46.2462 88.6555 46.0718 88.6555C45.8974 88.6555 45.7561 88.5127 45.7561 88.3368Z" fill="white"/>
<path d="M52.3187 91.5572C52.3064 91.571 51.7161 91.0528 51.0003 90.3997C50.2845 89.7468 49.7144 89.2061 49.7268 89.1923C49.7391 89.1784 50.3294 89.6966 51.0452 90.3497C51.761 91.0026 52.3311 91.5433 52.3187 91.5572Z" fill="white"/>
<path d="M51.8206 92.4629C51.8082 92.4767 51.2441 91.9887 50.5605 91.3727C49.8768 90.7567 49.3326 90.246 49.3449 90.2322C49.3573 90.2183 49.9214 90.7063 50.605 91.3224C51.2888 91.9384 51.833 92.4491 51.8206 92.4629Z" fill="white"/>
<path d="M51.3714 93.335C51.3592 93.3488 50.8545 92.9173 50.2444 92.3708C49.6341 91.8243 49.1494 91.3698 49.1616 91.3559C49.1738 91.3419 49.6785 91.7736 50.2886 92.3201C50.8989 92.8667 51.3837 93.3212 51.3714 93.335Z" fill="white"/>
<path d="M49.3448 92.0939C49.3301 92.0827 49.8053 91.4165 50.4063 90.606C51.0074 89.7955 51.5067 89.1476 51.5214 89.1587C51.5362 89.1698 51.061 89.836 50.4599 90.6466C49.8588 91.4571 49.3596 92.105 49.3448 92.0939Z" fill="white"/>
<path d="M49.677 93.335C49.6628 93.3231 50.2314 92.6039 50.9472 91.7285C51.6629 90.8531 52.2548 90.1531 52.269 90.1651C52.2832 90.177 51.7146 90.8962 50.9988 91.7716C50.2831 92.647 49.6912 93.347 49.677 93.335Z" fill="white"/>
<path d="M50.8567 93.2512C50.8421 93.2397 51.0386 92.9601 51.2955 92.6267C51.5524 92.2933 51.7726 92.0321 51.7872 92.0435C51.8018 92.0549 51.6053 92.3346 51.3484 92.668C51.0915 93.0016 50.8713 93.2626 50.8567 93.2512Z" fill="white"/>
<path d="M49.9597 89.5948C49.9444 89.5843 50.1217 89.2942 50.3556 88.9468C50.5897 88.5995 50.7917 88.3264 50.807 88.3369C50.8223 88.3473 50.645 88.6374 50.4111 88.9848C50.177 89.3322 49.9749 89.6053 49.9597 89.5948Z" fill="white"/>
<path d="M51.6211 89.5445C51.6074 89.5572 51.3498 89.2985 51.0439 88.9683C50.8909 88.8034 50.7547 88.6518 50.6578 88.5405C50.5609 88.4285 50.5029 88.3602 50.5079 88.3535C50.5242 88.3363 50.7874 88.5915 51.0928 88.922C51.399 89.2525 51.6346 89.5317 51.6211 89.5445Z" fill="white"/>
<path d="M39.8905 89.729C39.8781 89.7151 40.1768 89.4224 40.5576 89.075C40.9385 88.7276 41.2572 88.4572 41.2696 88.471C41.2819 88.4848 40.9833 88.7776 40.6024 89.125C40.2216 89.4724 39.9029 89.7428 39.8905 89.729Z" fill="white"/>
<path d="M39.1596 91.6745C39.1471 91.6607 39.7247 91.1088 40.4498 90.442C41.1746 89.7751 41.7723 89.2456 41.7848 89.2593C41.7973 89.2731 41.2198 89.825 40.4947 90.4919C39.7699 91.1588 39.1721 91.6884 39.1596 91.6745Z" fill="white"/>
<path d="M39.758 92.5132C39.7454 92.4995 40.2484 92.0041 40.8816 91.4068C41.5147 90.8093 42.0383 90.336 42.0509 90.3496C42.0636 90.3631 41.5606 90.8587 40.9274 91.456C40.2943 92.0535 39.7707 92.5269 39.758 92.5132Z" fill="white"/>
<path d="M41.6518 89.7122C41.6383 89.7249 41.4041 89.491 41.1288 89.1899C40.8535 88.8888 40.6414 88.6346 40.6549 88.622C40.6685 88.6092 40.9027 88.8431 41.178 89.1442C41.4532 89.4453 41.6654 89.6994 41.6518 89.7122Z" fill="white"/>
<path d="M42.0343 91.7584C42.0205 91.7709 41.522 91.2291 40.9211 90.5481C40.32 89.8673 39.8439 89.3052 39.8577 89.2929C39.8715 89.2806 40.37 89.8222 40.9709 90.5032C41.572 91.184 42.0481 91.746 42.0343 91.7584Z" fill="white"/>
<path d="M41.2697 92.4461C41.2561 92.4588 40.8249 92.0148 40.3064 91.4544C39.788 90.8939 39.3786 90.4292 39.3922 90.4166C39.4057 90.404 39.8369 90.8479 40.3555 91.4083C40.8738 91.9687 41.2832 92.4333 41.2697 92.4461Z" fill="white"/>
<path d="M40.7216 93.0667C40.7086 93.08 40.4934 92.8841 40.2409 92.6293C39.9887 92.3746 39.7947 92.1574 39.8077 92.1442C39.8208 92.1311 40.036 92.3268 40.2884 92.5816C40.5407 92.8363 40.7346 93.0534 40.7216 93.0667Z" fill="white"/>
<path d="M41.4195 92.2448C41.4316 92.2586 41.211 92.4731 40.9265 92.7232C40.6419 92.9733 40.4015 93.1645 40.3894 93.1505C40.3773 93.1366 40.5979 92.9223 40.8824 92.6722C41.167 92.4221 41.4074 92.231 41.4195 92.2448Z" fill="white"/>
</svg>
