<svg width="87" height="101" viewBox="0 0 87 101" fill="none" xmlns="http://www.w3.org/2000/svg">
<mask id="mask0_197_794" style="mask-type:luminance" maskUnits="userSpaceOnUse" x="0" y="0" width="87" height="101">
<path d="M81.8002 26.3082V21.9593C81.1792 16.0387 71.7878 11.8326 60.4057 6.35532C51.9998 2.31037 50.9205 0 50.9205 0C50.9205 0 49.2861 2.50497 41.4353 6.35532C30.0994 11.9151 20.7807 16.0387 20.1597 21.9593V26.3082C17.6695 26.3082 15.3189 28.0927 14.841 30.4644V95.7207H12.0466V12.9875C12.2654 12.7882 13.9082 11.1905 13.1724 8.80344C12.1757 5.56946 8.0981 4.98097 6.6803 2.82489C5.26249 4.98097 1.1849 5.56919 0.188202 8.80344C-0.547362 11.1905 1.09549 12.7882 1.31424 12.9875V100.944H1.93004H12.0466H14.841H37.2729H87V30.4641C86.522 28.0927 84.2904 26.3082 81.8002 26.3082Z" fill="white"/>
</mask>
<g mask="url(#mask0_197_794)">
<path d="M89.4195 -5.25647H-4.07446V104.506H89.4195V-5.25647Z" fill="#56537D"/>
</g>
<circle cx="29" cy="77" r="14" fill="#FFC449"/>
<mask id="mask1_197_794" style="mask-type:luminance" maskUnits="userSpaceOnUse" x="0" y="0" width="87" height="101">
<path d="M81.8002 26.3082V21.9593C81.1792 16.0387 71.7878 11.8326 60.4057 6.35532C51.9998 2.31037 50.9205 0 50.9205 0C50.9205 0 49.2861 2.50497 41.4353 6.35532C30.0994 11.9151 20.7807 16.0387 20.1597 21.9593V26.3082C17.6695 26.3082 15.3189 28.0927 14.841 30.4644V95.7207H12.0466V12.9875C12.2654 12.7882 13.9082 11.1905 13.1724 8.80344C12.1757 5.56946 8.0981 4.98097 6.6803 2.82489C5.26249 4.98097 1.1849 5.56919 0.188202 8.80344C-0.547362 11.1905 1.09549 12.7882 1.31424 12.9875V100.944H1.93004H12.0466H14.841H37.2729H87V30.4641C86.522 28.0927 84.2904 26.3082 81.8002 26.3082Z" fill="white"/>
</mask>
<g mask="url(#mask1_197_794)">
<path d="M84.8655 72.6821L84.1062 61.0629C84.4554 61.0629 84.7384 60.7772 84.7384 60.4247V59.9814C84.7384 59.6289 84.4554 59.3432 84.1062 59.3432H83.9938L83.1757 46.8222H83.8185V45.5224L84.1065 45.5235C84.3764 45.5235 84.6326 45.3684 84.7329 45.1152C84.8584 44.7984 84.7548 44.4994 84.5473 44.3197C84.9345 43.816 85.2336 43.0033 84.7151 42.0855C84.3083 41.3654 83.413 40.7885 82.6228 40.2792C82.3009 40.0719 81.8752 39.7972 81.6077 39.5656C81.967 39.3625 82.2131 38.9791 82.2131 38.5347C82.2131 37.987 81.8421 37.5299 81.3419 37.3936L81.025 33.912L80.7341 37.3936C80.2339 37.5299 79.8626 37.987 79.8626 38.5347C79.8626 38.9838 80.1139 39.3705 80.4795 39.572C80.2099 39.7997 79.7896 40.0669 79.471 40.269C78.6781 40.773 77.7793 41.3438 77.3674 42.061C76.8753 42.9191 77.1041 43.6887 77.4519 44.1988C77.2209 44.3078 77.0598 44.5422 77.0585 44.8152C77.0585 45.1936 77.3623 45.5009 77.736 45.5017L78.2329 45.5033V46.8222H78.8741L78.03 59.3432H77.8818C77.5326 59.3432 77.2496 59.6289 77.2496 59.9814V60.4247C77.2496 60.7772 77.5326 61.0629 77.8818 61.0629H77.9141L77.1309 72.6821H72.9109L72.4791 66.0762H72.9557V65.1123L73.1693 65.1131C73.3711 65.1131 73.5619 64.9955 73.6352 64.8059C73.7254 64.5726 73.6489 64.3529 73.4958 64.2204C73.7829 63.8469 74.0046 63.2444 73.6202 62.5637C73.3186 62.0295 72.6546 61.602 72.0689 61.2244C71.8302 61.0706 71.5147 60.8672 71.3164 60.6952C71.5827 60.5445 71.7654 60.2602 71.7654 59.9306C71.7654 59.5246 71.4903 59.1856 71.1195 59.0846L70.8846 56.5031L70.6689 59.0846C70.2978 59.1856 70.0227 59.5246 70.0227 59.9306C70.0227 60.2635 70.209 60.5503 70.4802 60.6999C70.2803 60.8688 69.9686 61.0667 69.7326 61.2166C69.1447 61.5904 68.4781 62.0135 68.1729 62.5452C67.8081 63.1817 67.9777 63.752 68.2355 64.1304C68.0641 64.2113 67.9448 64.3852 67.9438 64.5875C67.9438 64.868 68.1691 65.096 68.4461 65.0965L68.8147 65.0976V66.0753H69.2902L68.845 72.6813H64.5022V68.7271H59.3904C60.6026 66.6202 61.6206 63.4517 60.4169 59.5461C57.7435 50.8705 47.3362 48.8361 42.68 43.5457L42.4706 40.0205C42.7653 39.8099 42.9584 39.4638 42.9584 39.0716C42.9584 38.6291 42.7137 38.2446 42.3533 38.048L41.8064 34.5985L41.2598 38.0478C40.8994 38.2443 40.6546 38.6288 40.6546 39.0713C40.6546 39.4635 40.8477 39.8097 41.1425 40.0203L40.933 43.5455C36.2768 48.8356 25.8695 50.8699 23.1961 59.5458C21.9924 63.4514 23.0104 66.6199 24.2226 68.7269H19.1105V72.6818H14.7989L14.3671 66.0759H14.8437V65.112L15.0573 65.1128C15.2591 65.1128 15.45 64.9952 15.5232 64.8056C15.6137 64.5723 15.5369 64.3523 15.3838 64.2201C15.6709 63.8467 15.8929 63.2441 15.5082 62.5634C15.2066 62.0293 14.5427 61.6017 13.9567 61.2241C13.718 61.0703 13.4024 60.8669 13.2042 60.6949C13.4705 60.5442 13.6532 60.2599 13.6532 59.9303C13.6532 59.5243 13.3781 59.1853 13.0073 59.0843L12.7721 56.5029L12.5564 59.0843C12.1856 59.1853 11.9102 59.5243 11.9102 59.9303C11.9102 60.2632 12.0964 60.55 12.3677 60.6996C12.1678 60.8686 11.8561 61.0665 11.6201 61.2164C11.0322 61.5901 10.3655 62.0133 10.0604 62.5449C9.69561 63.1814 9.86514 63.7517 10.123 64.1301C9.95155 64.211 9.83233 64.3849 9.83124 64.5872C9.83124 64.8677 10.0566 65.0957 10.3338 65.0962L10.7024 65.0973V66.075H11.1779L10.7328 72.681H6.48921L5.72985 61.0618C6.07904 61.0618 6.36205 60.7761 6.36205 60.4236V59.9803C6.36205 59.6278 6.07904 59.3421 5.72985 59.3421H5.61747L4.79932 46.8211H5.44219V45.5213L5.73013 45.5224C6.00002 45.5224 6.25623 45.3673 6.35659 45.1141C6.4821 44.7972 6.37846 44.4983 6.17092 44.3186C6.55839 43.8149 6.85726 43.0022 6.33881 42.0844C5.9322 41.3643 5.03667 40.7874 4.24642 40.2781C3.92458 40.0708 3.49883 39.7961 3.2314 39.5645C3.5907 39.3614 3.8368 38.978 3.8368 38.5336C3.8368 37.9859 3.46574 37.5288 2.96561 37.3925L2.64869 33.9109L2.35802 37.3925C1.85789 37.5288 1.48655 37.9859 1.48655 38.5336C1.48655 38.9827 1.73785 39.3694 2.10344 39.5709C1.83383 39.7986 1.41354 40.0658 1.09498 40.2679C0.301995 40.7719 -0.596814 41.3427 -1.00862 42.0599C-1.50082 42.918 -1.27194 43.6876 -0.924125 44.1977C-1.15546 44.3067 -1.31624 44.5411 -1.31761 44.8141C-1.31761 45.1925 -1.01381 45.4997 -0.640017 45.5006L-0.143171 45.5022V46.8211H0.498055L-0.346066 59.3421H-0.494271C-0.843459 59.3421 -1.12647 59.6278 -1.12647 59.9803V60.4236C-1.12647 60.7761 -0.843459 61.0618 -0.494271 61.0618H-0.462007L-1.24515 72.681H-9.8269V99.0971H93.4399V72.681H84.8655V72.6821Z" fill="#262341"/>
</g>
<path d="M37.5313 89.5444L36.7172 101H44.2438L44.626 97.6623H47.0186L47.4173 100.983H54.1133L53.349 90.3495L37.5313 89.5444Z" fill="#125056"/>
<path d="M39.8908 69.9208C38.8939 70.0382 37.9468 70.3401 36.385 72.4534C34.8231 74.5667 33.0785 77.8038 32.6964 80.0345C32.3142 82.2652 33.6268 83.6406 36.1856 83.2884C38.7443 82.9361 42.1837 82.1311 42.1837 82.1311C42.1837 82.1311 42.5824 79.0953 41.4526 77.5522" fill="#1D7377"/>
<path d="M50.4081 70.1389C50.4081 70.1389 51.106 70.1725 51.7706 70.2396C52.4352 70.3066 53.565 71.0446 54.5453 72.9231C55.5256 74.8016 57.1373 77.0491 57.669 79.3469C58.2007 81.6448 57.0044 83.4562 54.7447 83.4562C52.485 83.4562 47.7996 82.1312 47.7996 82.1312C47.7996 82.1312 49.0955 80.3701 48.6968 77.6194" fill="#1D7377"/>
<path d="M45.9719 69.8202C48.6636 69.8202 50.7737 70.0717 51.7706 70.2395C52.7675 70.4072 53.133 71.9335 53.1663 72.7721C53.1995 73.6107 53.9804 94.291 53.9804 94.5259C53.9804 94.7607 46.6864 95.2638 46.5202 94.9787C46.354 94.6936 46.1048 92.2448 46.0384 92.2448C45.9719 92.2448 45.6894 94.8278 45.4901 94.9787C45.2907 95.1297 36.6257 94.7106 36.6342 94.3581C36.6508 93.6705 37.8138 74.1139 37.9966 72.4702C38.1794 70.8265 39.1264 70.1053 39.8907 69.9208C40.655 69.7363 45.9719 69.8202 45.9719 69.8202Z" fill="#22938A"/>
<path d="M45.8721 71.1955C44.7281 71.2724 43.0641 71.0278 43.0641 69.7363C43.0641 68.4449 43.9945 68.1765 45.7391 68.1765C47.4837 68.1765 48.3809 68.6629 48.3809 69.5015C48.3809 70.3401 48.3643 71.0278 45.8721 71.1955Z" fill="white"/>
<path d="M44.2274 67.6565V69.535C44.2274 69.535 45.2077 70.0382 47.2846 69.6021V67.7907L44.2274 67.6565Z" fill="#DDA38A"/>
<path d="M51.5712 57.9174C51.5712 57.9174 53.4986 57.336 53.4986 58.8343C53.4986 60.3326 51.1282 60.0419 51.1282 60.0419L51.5712 57.9174Z" fill="#16232B"/>
<path d="M50.2862 53.4672C50.2862 53.4672 53.0998 53.5343 53.9416 56.0166C54.7834 58.4989 50.1533 59.2815 50.1533 59.2815L50.2862 53.4672Z" fill="#16232B"/>
<path d="M51.8267 55.4L52.1249 61.6297C52.1249 61.6297 54.9603 68.0839 47.2733 68.8752C38.3676 69.7922 38.1205 62.1778 37.9688 59.4828C37.8171 56.7878 38.8798 53.1805 38.8798 53.1805L51.8267 55.4Z" fill="#F4CFA2"/>
<path d="M38.0104 60.1997C38.169 60.4121 38.3121 60.6381 38.4481 60.8589C38.6844 61.2428 39.2636 61.8547 39.7125 61.3516C40.1789 60.829 39.9408 59.841 39.8433 59.2211C39.8375 59.1846 39.852 59.1498 39.8896 59.1386C40.607 58.9265 41.2728 58.4088 41.2698 57.5932C41.2696 57.5534 41.3131 57.5117 41.3539 57.5285C42.1481 57.8557 43.285 58.0074 44.0606 57.5573C44.2963 57.4206 44.606 57.1855 44.8956 57.1942C45.1665 57.2024 45.4258 57.3433 45.6841 57.4155C46.7507 57.7135 48.5504 57.9554 49.3309 56.9418C49.3449 56.9236 49.3749 56.9188 49.3955 56.9247C50.0274 57.1025 50.7251 57.2884 51.3844 57.1614C51.5692 57.1257 51.7407 57.0672 51.903 56.993L51.8267 55.4L38.8798 53.1805C38.8798 53.1805 37.8171 56.7878 37.9688 59.4828C37.9808 59.6939 37.9933 59.935 38.0104 60.1997Z" fill="#DDA38A"/>
<path d="M41.6698 58.2362C41.6803 58.2478 41.7244 58.2237 41.7908 58.1746C41.8251 58.1516 41.8598 58.115 41.9081 58.0867C41.958 58.0562 42.0106 58.0239 42.066 57.9899C42.1877 57.9381 42.3286 57.8756 42.4875 57.8796C42.6443 57.8757 42.8109 57.914 42.9673 57.9851C43.278 58.1371 43.4133 58.2739 43.4964 58.3196C43.5771 58.3717 43.5985 58.3568 43.6222 58.3353C43.6449 58.3146 43.6638 58.2889 43.6051 58.2005C43.5758 58.1562 43.5259 58.0974 43.4417 58.0223C43.3557 57.9499 43.2388 57.8537 43.0562 57.7715C42.875 57.6886 42.6698 57.6456 42.4773 57.6611C42.2816 57.6686 42.1151 57.7569 41.9859 57.8359C41.8645 57.9301 41.7726 58.0178 41.7263 58.0963C41.6755 58.1705 41.6545 58.2192 41.6698 58.2362Z" fill="#16232B"/>
<path d="M50.6684 58.442C50.6806 58.432 50.6572 58.3878 50.6053 58.3175C50.5793 58.2825 50.5464 58.2405 50.5069 58.1938C50.4628 58.1522 50.4119 58.1059 50.3551 58.056C50.3002 58.0035 50.2258 57.9669 50.1535 57.9183C50.118 57.8926 50.074 57.8802 50.0324 57.8609C49.9894 57.8451 49.948 57.8208 49.9006 57.8119C49.7168 57.7546 49.5035 57.7557 49.3085 57.8084C49.1131 57.8635 48.9815 57.9461 48.8906 58.0149C48.8002 58.0861 48.7473 58.1438 48.7162 58.1878C48.6548 58.2761 48.6743 58.3029 48.697 58.3232C48.7211 58.3446 48.7417 58.3588 48.8224 58.3096C48.8771 58.2747 48.9324 58.2394 49.0037 58.1941C49.0888 58.1432 49.2036 58.0792 49.3646 58.034C49.5257 57.9913 49.6949 57.9848 49.8491 58.0241C49.9256 58.0433 49.9997 58.0692 50.0682 58.0981C50.1339 58.1352 50.202 58.1595 50.2574 58.1988C50.3136 58.2366 50.3663 58.2706 50.4142 58.2998C50.4594 58.3336 50.4984 58.3647 50.5332 58.388C50.6025 58.4351 50.6506 58.4564 50.6684 58.442Z" fill="#16232B"/>
<path d="M46.694 63.3901C46.6829 63.408 46.7837 63.4776 46.9587 63.4599C47.0443 63.4506 47.151 63.4226 47.2492 63.3375C47.3485 63.2526 47.4024 63.0832 47.3691 62.9407C47.3445 62.7988 47.2743 62.6696 47.1757 62.5901C47.078 62.5096 46.9686 62.4857 46.8838 62.4785C46.7107 62.4684 46.6135 62.5186 46.6182 62.5381C46.6217 62.561 46.7223 62.5542 46.8674 62.5901C46.9383 62.6095 47.0211 62.6402 47.0861 62.7036C47.1514 62.765 47.1992 62.8601 47.2186 62.9686C47.2408 63.0771 47.2117 63.1662 47.1533 63.2298C47.0921 63.292 47.0103 63.3285 46.9401 63.3488C46.7958 63.3902 46.7025 63.3688 46.694 63.3901Z" fill="#3F2722"/>
<path d="M44.777 64.9167C46.2929 64.6621 47.7643 64.7789 48.3385 64.8425C48.5102 64.8617 48.6486 65.0003 48.6697 65.1795C48.738 65.7613 48.5583 66.9352 46.5668 66.8766C44.729 66.8225 44.4659 65.8373 44.4589 65.3046C44.4564 65.1108 44.5938 64.9476 44.777 64.9167Z" fill="#9E3249"/>
<path d="M46.5668 66.8767C45.7204 66.8519 45.209 66.6291 44.9019 66.3443C45.0071 65.8293 45.4565 65.5643 46.6822 65.5642C47.5667 65.5641 48.0036 66.0201 48.2188 66.4444C47.9044 66.7132 47.3917 66.9009 46.5668 66.8767Z" fill="#E85D77"/>
<path d="M50.2187 60.4853C50.1856 60.0049 49.9727 59.6296 49.7429 59.6468C49.5132 59.6641 49.3538 60.0675 49.3868 60.5478C49.4199 61.028 49.6328 61.4035 49.8625 61.3862C50.0923 61.3689 50.2518 60.9657 50.2187 60.4853Z" fill="#16232B"/>
<path d="M43.2105 60.5621C43.1774 60.0817 42.9645 59.7064 42.7347 59.7236C42.505 59.7409 42.3456 60.1442 42.3786 60.6246C42.4117 61.1048 42.6246 61.4803 42.8543 61.463C43.0841 61.4456 43.2438 61.0424 43.2105 60.5621Z" fill="#16232B"/>
<path d="M52.0018 62.419C52.0018 62.1235 51.5265 61.884 50.9403 61.884C50.3541 61.884 49.8788 62.1235 49.8788 62.419C49.8788 62.7146 50.3541 62.954 50.9403 62.954C51.5265 62.954 52.0018 62.7146 52.0018 62.419Z" fill="#EF7B7B"/>
<path d="M50.9403 62.1614C50.9276 62.1791 51.0192 62.2732 51.1448 62.3717C51.2704 62.4702 51.3826 62.5358 51.3952 62.5182C51.4079 62.5005 51.3163 62.4063 51.1907 62.3078C51.0651 62.2093 50.9529 62.1438 50.9403 62.1614Z" fill="#3F2722"/>
<path d="M50.4476 62.2472C50.4349 62.2648 50.5265 62.359 50.6521 62.4575C50.7778 62.556 50.8898 62.6216 50.9024 62.6039C50.9152 62.5863 50.8236 62.4921 50.698 62.3936C50.5723 62.2951 50.4603 62.2297 50.4476 62.2472Z" fill="#3F2722"/>
<path d="M43.1498 62.5512C43.1498 62.2558 42.6744 62.0161 42.0882 62.0161C41.5021 62.0161 41.0267 62.2558 41.0267 62.5512C41.0267 62.8468 41.5021 63.0863 42.0882 63.0863C42.6743 63.0863 43.1498 62.8467 43.1498 62.5512Z" fill="#EF7B7B"/>
<path d="M42.088 62.2935C42.0753 62.3111 42.1669 62.4053 42.2925 62.5038C42.4181 62.6023 42.5303 62.668 42.5429 62.6502C42.5556 62.6326 42.464 62.5384 42.3384 62.4399C42.2128 62.3414 42.1006 62.2758 42.088 62.2935Z" fill="#3F2722"/>
<path d="M41.595 62.3793C41.5824 62.397 41.674 62.4911 41.7996 62.5895C41.9252 62.6882 42.0373 62.7538 42.0499 62.7361C42.0627 62.7184 41.9711 62.6242 41.8455 62.5257C41.7197 62.4272 41.6077 62.3618 41.595 62.3793Z" fill="#3F2722"/>
<path d="M35.7092 55.4127C35.7092 55.4127 33.073 57.9397 34.9339 59.2368C34.9339 59.2368 33.4496 61.5402 36.5732 61.8308C36.5732 61.8308 39.1652 61.5402 39.4532 61.16C39.7412 60.7798 39.0987 58.6106 39.0987 58.6106C39.0987 58.6106 40.5831 58.1633 40.295 55.8823C40.295 55.8823 42.9535 58.2975 44.7701 56.2624C44.7701 56.2624 46.6753 57.4924 48.0045 57.0004C49.3337 56.5085 49.1121 55.681 49.1121 55.681C49.1121 55.681 49.8432 57.2241 51.837 56.419C53.8308 55.6139 51.5491 52.975 51.5491 52.975C51.5491 52.975 43.3522 49.8889 40.1179 50.9624C36.8832 52.0358 35.7092 55.4127 35.7092 55.4127Z" fill="#253038"/>
<path d="M43.8618 47.0043C39.9432 46.8599 34.6902 50.4034 35.7093 55.4128C35.7093 55.4128 38.8582 53.0035 44.2163 52.8186C50.2088 52.6119 51.5878 53.7524 52.2608 54.0375C52.2608 54.0375 52.8174 47.3341 43.8618 47.0043Z" fill="white"/>
<path d="M43.5459 51.6892C39.2093 52.1085 36.6647 53.4606 35.5836 54.3269C35.5935 54.6803 35.6337 55.0423 35.7091 55.4127C35.7091 55.4127 38.858 53.0035 44.2161 52.8186C50.2086 52.6117 51.5876 53.7522 52.2606 54.0373C52.2606 54.0373 52.3017 53.537 52.1797 52.8036C50.486 51.9996 47.6786 51.2896 43.5459 51.6892Z" fill="#D4E1F9"/>
<path d="M38.7606 62.0108C38.8882 63.5263 39.3065 64.123 37.6006 64.2431C35.8946 64.3632 35.053 60.8586 36.395 60.2105C37.7369 59.5624 38.6696 60.9307 38.7606 62.0108Z" fill="#F4CFA2"/>
<path d="M36.5184 61.1846C36.5234 61.1892 36.5472 61.1673 36.5911 61.1328C36.6351 61.0999 36.7062 61.0555 36.8008 61.0557C36.9948 61.0499 37.2279 61.2591 37.4042 61.5332C37.5783 61.8126 37.7406 62.1653 37.8118 62.5224C37.8428 62.6961 37.8403 62.8903 37.7439 62.9739C37.6361 63.0712 37.4872 63.0556 37.3804 62.9713C37.272 62.8884 37.2165 62.7658 37.1999 62.6607C37.1859 62.5526 37.2113 62.4619 37.2474 62.3838C37.319 62.2309 37.4252 62.1924 37.4985 62.1773C37.5739 62.1628 37.6206 62.1677 37.6462 62.1629C37.6724 62.1593 37.6794 62.1507 37.6837 62.1393C37.6878 62.1284 37.6872 62.1149 37.6622 62.0972C37.6372 62.0813 37.5875 62.0541 37.4867 62.0546C37.4369 62.0558 37.3723 62.0652 37.3021 62.1036C37.2323 62.1413 37.1613 62.2113 37.1115 62.3075C37.0627 62.3991 37.0196 62.5318 37.038 62.6823C37.0584 62.8302 37.1315 62.9952 37.2828 63.1119C37.3582 63.1687 37.4531 63.2114 37.5582 63.2146C37.6635 63.2186 37.7708 63.1762 37.8509 63.1039C37.9416 63.0241 37.974 62.9046 37.9844 62.8004C37.9966 62.6926 37.9789 62.5919 37.9627 62.4922C37.8744 62.1006 37.697 61.7506 37.5003 61.4624C37.398 61.3196 37.2849 61.1996 37.1646 61.1113C37.0447 61.024 36.9109 60.9745 36.7966 60.9879C36.6821 61 36.6082 61.0629 36.569 61.1062C36.5295 61.1519 36.5147 61.1814 36.5184 61.1846Z" fill="#16232B"/>
<path d="M48.2981 78.1225C48.2981 78.1225 47.2679 82.0975 47.7996 82.1311C48.3313 82.1646 49.511 79.5649 49.511 79.5649C49.511 79.5649 49.3116 76.7639 48.2981 78.1225Z" fill="#3A6F81"/>
<path d="M45.2407 69.468L45.9718 70.8768L46.653 69.317L45.2407 69.468Z" fill="#DDA38A"/>
<path d="M48.381 81.7956C48.381 81.7956 47.434 82.0808 46.1546 81.5608C44.8752 81.0409 44.9915 80.4203 44.9749 78.307C44.9583 76.1937 44.9251 74.03 45.274 73.5604C45.6229 73.0908 46.5035 72.9063 46.7195 73.5939C46.9355 74.2816 48.1318 77.3006 48.6967 77.6193C49.2616 77.938 49.5109 79.2462 49.3447 80.3532C49.1786 81.4602 48.381 81.7956 48.381 81.7956Z" fill="#DDA38A"/>
<path d="M46.5532 76.831C46.5532 76.831 46.1212 74.4325 46.0548 73.5939C45.9883 72.7553 47.0849 72.3192 47.4671 73.3927C47.8492 74.4661 48.4806 77.0155 48.6966 77.6193C48.9126 78.2231 48.9624 78.9611 48.2646 78.743C47.5668 78.525 46.736 77.7535 46.5532 76.831Z" fill="#DDA38A"/>
<path d="M47.8826 77.0826C47.8826 77.0826 47.6001 75.1538 47.1183 74.5332C46.6365 73.9127 45.9885 74.3487 46.2377 75.5396C46.4869 76.7304 46.7361 77.2839 46.7361 77.2839C46.7361 77.2839 47.4838 77.8038 47.8826 77.0826Z" fill="#DDA38A"/>
<path d="M41.5689 81.6111C41.5689 81.6111 42.516 82.0807 43.7953 81.7788C45.0747 81.4769 45.623 79.9506 45.3405 77.8373C45.3405 77.8373 45.0082 74.1306 44.8919 73.4094C44.7756 72.6882 43.9781 72.4702 43.4796 73.6107C42.9812 74.7512 42.599 75.5731 42.1338 76.9316C41.6686 78.2902 41.22 79.6152 41.22 79.6152L41.5689 81.6111Z" fill="#F4CFA2"/>
<path d="M57.669 79.3469C58.2007 81.6448 57.0044 83.4562 54.7447 83.4562C52.485 83.4562 47.7996 82.1312 47.7996 82.1312C47.7996 82.1312 49.0955 80.3701 48.6968 77.6194C48.6968 77.6194 53.4321 78.6593 55.0604 78.9612C56.6887 79.2631 57.669 79.3469 57.669 79.3469Z" fill="#1D7377"/>
<path d="M32.6963 80.0346C32.3009 82.2629 33.6268 83.6406 36.1855 83.2884C38.7443 82.9362 42.1836 82.1311 42.1836 82.1311C42.1836 82.1311 42.5824 79.0953 41.4525 77.5522C41.4525 77.5522 37.2157 78.2735 35.5708 78.676C33.9259 79.0785 32.8957 78.9108 32.6963 80.0346Z" fill="#1D7377"/>
<path d="M40.1863 77.7732C40.4655 78.2653 40.9814 79.5991 40.7213 82.4559C41.5935 82.2692 42.1838 82.1312 42.1838 82.1312C42.1838 82.1312 42.5826 79.0954 41.4528 77.5524C41.4528 77.5524 40.9322 77.6408 40.1863 77.7732Z" fill="white"/>
<path d="M47.7996 82.1312C47.7996 82.1312 48.4686 82.3202 49.4223 82.5556C50.4248 80.216 50.4217 78.7563 50.2563 77.959C49.351 77.7631 48.6968 77.6194 48.6968 77.6194C49.0955 80.3701 47.7996 82.1312 47.7996 82.1312Z" fill="white"/>
<path d="M43.7786 75.4389C43.7786 75.4389 44.4598 73.6778 44.8586 73.074C45.2573 72.4702 46.0382 72.9902 45.7558 73.8456C45.4733 74.701 44.7921 76.1769 44.7921 76.1769" fill="#F4CFA2"/>
<path d="M44.5099 76.2105C44.5099 76.2105 44.9087 75.2209 45.2908 74.5165C45.673 73.812 46.404 74.3823 46.1216 75.1706C45.8391 75.9589 45.2243 77.6529 45.2243 77.6529" fill="#F4CFA2"/>
<path d="M45.7726 83.171C45.7726 82.9951 45.9139 82.8523 46.0883 82.8523C46.2627 82.8523 46.404 82.9951 46.404 83.171C46.404 83.3469 46.2627 83.4896 46.0883 83.4896C45.9139 83.4896 45.7726 83.3469 45.7726 83.171Z" fill="white"/>
<path d="M45.7561 88.3369C45.7561 88.161 45.8974 88.0182 46.0718 88.0182C46.2462 88.0182 46.3875 88.161 46.3875 88.3369C46.3875 88.5128 46.2462 88.6555 46.0718 88.6555C45.8974 88.6555 45.7561 88.5128 45.7561 88.3369Z" fill="white"/>
<path d="M52.3189 91.5572C52.3065 91.571 51.7162 91.0528 51.0004 90.3998C50.2846 89.7468 49.7145 89.2061 49.7269 89.1923C49.7392 89.1785 50.3295 89.6967 51.0453 90.3497C51.7611 91.0026 52.3312 91.5434 52.3189 91.5572Z" fill="white"/>
<path d="M51.8206 92.4629C51.8082 92.4768 51.2441 91.9888 50.5605 91.3727C49.8768 90.7567 49.3326 90.246 49.3449 90.2322C49.3573 90.2184 49.9214 90.7064 50.605 91.3224C51.2888 91.9384 51.833 92.4491 51.8206 92.4629Z" fill="white"/>
<path d="M51.3714 93.3351C51.3592 93.3489 50.8545 92.9174 50.2444 92.3708C49.6341 91.8243 49.1494 91.3699 49.1616 91.3559C49.1738 91.342 49.6785 91.7736 50.2886 92.3201C50.8989 92.8668 51.3837 93.3212 51.3714 93.3351Z" fill="white"/>
<path d="M49.3448 92.0939C49.3301 92.0827 49.8053 91.4165 50.4063 90.606C51.0074 89.7955 51.5067 89.1476 51.5214 89.1587C51.5362 89.1698 51.061 89.836 50.4599 90.6466C49.8588 91.4571 49.3596 92.105 49.3448 92.0939Z" fill="white"/>
<path d="M49.677 93.335C49.6628 93.3231 50.2314 92.6039 50.9472 91.7285C51.6629 90.8531 52.2548 90.1531 52.269 90.1651C52.2832 90.177 51.7146 90.8962 50.9988 91.7716C50.2831 92.647 49.6912 93.347 49.677 93.335Z" fill="white"/>
<path d="M50.8566 93.2512C50.842 93.2398 51.0384 92.9602 51.2954 92.6267C51.5523 92.2933 51.7724 92.0322 51.7871 92.0436C51.8017 92.055 51.6052 92.3346 51.3483 92.668C51.0913 93.0016 50.8712 93.2626 50.8566 93.2512Z" fill="white"/>
<path d="M49.9598 89.5948C49.9445 89.5843 50.1218 89.2942 50.3558 88.9468C50.5898 88.5994 50.7919 88.3264 50.8072 88.3368C50.8224 88.3473 50.6451 88.6374 50.4112 88.9848C50.1771 89.3322 49.9751 89.6052 49.9598 89.5948Z" fill="white"/>
<path d="M51.6211 89.5445C51.6074 89.5572 51.3498 89.2985 51.0439 88.9683C50.8909 88.8034 50.7547 88.6518 50.6578 88.5405C50.5609 88.4285 50.5029 88.3602 50.5079 88.3535C50.5242 88.3363 50.7874 88.5915 51.0928 88.922C51.399 89.2525 51.6346 89.5317 51.6211 89.5445Z" fill="white"/>
<path d="M39.8906 89.7289C39.8783 89.7151 40.1769 89.4223 40.5578 89.0749C40.9386 88.7275 41.2573 88.4571 41.2697 88.471C41.2821 88.4848 40.9834 88.7776 40.6026 89.125C40.2217 89.4723 39.903 89.7427 39.8906 89.7289Z" fill="white"/>
<path d="M39.1595 91.6745C39.147 91.6607 39.7246 91.1088 40.4496 90.4419C41.1745 89.7751 41.7722 89.2456 41.7847 89.2593C41.7972 89.2731 41.2197 89.825 40.4946 90.4919C39.7697 91.1587 39.172 91.6883 39.1595 91.6745Z" fill="white"/>
<path d="M39.7579 92.5133C39.7453 92.4996 40.2483 92.0042 40.8815 91.4068C41.5146 90.8093 42.0382 90.3361 42.0508 90.3496C42.0634 90.3632 41.5605 90.8587 40.9272 91.4561C40.2941 92.0536 39.7706 92.527 39.7579 92.5133Z" fill="white"/>
<path d="M41.6518 89.7122C41.6383 89.7249 41.4041 89.491 41.1288 89.1899C40.8535 88.8888 40.6414 88.6346 40.6549 88.622C40.6685 88.6092 40.9027 88.8431 41.178 89.1442C41.4532 89.4453 41.6654 89.6994 41.6518 89.7122Z" fill="white"/>
<path d="M42.0342 91.7585C42.0204 91.7709 41.5219 91.2291 40.921 90.5482C40.3199 89.8674 39.8438 89.3053 39.8576 89.2929C39.8714 89.2806 40.3699 89.8223 40.9708 90.5032C41.5719 91.184 42.048 91.746 42.0342 91.7585Z" fill="white"/>
<path d="M41.2696 92.4461C41.256 92.4588 40.8248 92.0149 40.3063 91.4544C39.7879 90.8939 39.3785 90.4293 39.3921 90.4166C39.4056 90.404 39.8368 90.8479 40.3553 91.4084C40.8737 91.9687 41.2831 92.4334 41.2696 92.4461Z" fill="white"/>
<path d="M40.7215 93.0667C40.7084 93.0799 40.4932 92.884 40.2408 92.6292C39.9885 92.3746 39.7946 92.1573 39.8076 92.1442C39.8207 92.131 40.0359 92.3268 40.2883 92.5816C40.5406 92.8363 40.7345 93.0534 40.7215 93.0667Z" fill="white"/>
<path d="M41.4195 92.2448C41.4316 92.2587 41.211 92.4731 40.9265 92.7232C40.6419 92.9733 40.4015 93.1645 40.3894 93.1506C40.3773 93.1366 40.5979 92.9223 40.8824 92.6722C41.167 92.4221 41.4074 92.231 41.4195 92.2448Z" fill="white"/>
</svg>
