<svg width="29" height="24" viewBox="0 0 29 24" fill="none" xmlns="http://www.w3.org/2000/svg">
<path d="M8.45833 8.4H20.5417C20.9042 8.4 21.2667 8.52 21.5083 8.52C21.6292 8.16 21.75 7.68 21.75 7.32C21.75 5.76 21.025 4.32 19.6958 3.48L14.5 0L9.30417 3.36C8.09583 4.32 7.25 5.76 7.25 7.32C7.25 7.8 7.37083 8.16 7.49167 8.52C7.73333 8.52 8.09583 8.4 8.45833 8.4ZM29 7.2C29 5.88 26.5833 3.6 26.5833 3.6C26.5833 3.6 24.1667 5.88 24.1667 7.2C24.1667 8.04 24.65 8.88 25.375 9.24V14.4H22.9583V12C22.9583 10.68 21.8708 9.6 20.5417 9.6H8.45833C7.12917 9.6 6.04167 10.68 6.04167 12V14.4H3.625V9.24C4.35 8.88 4.83333 8.04 4.83333 7.2C4.83333 5.88 2.41667 3.6 2.41667 3.6C2.41667 3.6 0 5.88 0 7.2C0 8.04 0.483333 8.88 1.20833 9.24V24H12.0833V19.2C12.0833 17.88 13.1708 16.8 14.5 16.8C15.8292 16.8 16.9167 17.88 16.9167 19.2V24H27.7917V9.24C28.5167 8.88 29 8.04 29 7.2Z" fill="#DFDFDF"/>
</svg>
